ffmpeg started on 2025-06-09 at 18:09:35
Report written to "D:\Convert\FFMetrics\reports\ssim_report-6.txt"
Log level: 32
Command line:
ffmpeg -hide_banner -nostdin -i "G:\\\xc0\xed\xe8\xec\xe5\\\xce\xed\xe3\xee\xe8\xed\xe3\xe8\\!_30_\xc2\xe5\xf1\xed\xe0_2023\\\xd1\xeb\xe8\xf8\xea\xee\xec \xec\xe8\xeb\xfb\xe9 \xea\xf0\xe8\xe7\xe8\xf1\\Kawaisugi_Crisis_[08]_[AniLibria_TV]_[WEBRip_1080p]_HEVC.mkv" -i "G:\\\xc0\xed\xe8\xec\xe5\\\xce\xed\xe3\xee\xe8\xed\xe3\xe8\\!_30_\xc2\xe5\xf1\xed\xe0_2023\\\xd1\xeb\xe8\xf8\xea\xee\xec \xec\xe8\xeb\xfb\xe9 \xea\xf0\xe8\xe7\xe8\xf1\\Kawaisugi_Crisis_[08]_[AniLibria_TV]_[WEBRip_1080p].mkv" -lavfi "[0:v]settb=AVTB,setpts=PTS-STARTPTS,format=pix_fmts=yuv420p10,fps=24000/1001,scale=1920:1080:flags=bicubic[main];[1:v]settb=AVTB,setpts=PTS-STARTPTS,format=pix_fmts=yuv420p,fps=24000/1001,scale=1920:1080:flags=bicubic[ref];[main][ref]ssim=eof_action=endall:stats_file='D\\:/Convert/FFMetrics/logs/ssim_logfile-6.txt'" -f null -
Input #0, matroska,webm, from 'G:\Аниме\Онгоинги\!_30_Весна_2023\Слишком милый кризис\Kawaisugi_Crisis_[08]_[AniLibria_TV]_[WEBRip_1080p]_HEVC.mkv':
  Metadata:
    ENCODER         : Lavf61.7.100
  Duration: 00:23:42.51, start: -0.021000, bitrate: 1019 kb/s
  Stream #0:0(jpn): Video: hevc (Main 10), yuv420p10le(pc, bt709, progressive), 1920x1080 [SAR 1:1 DAR 16:9], 23.98 fps, 23.98 tbr, 1k tbn (default) (forced)
      Metadata:
        title           : Original
        ENCODER         : Lavc61.19.100 libx265
        BPS             : 821704
        DURATION        : 00:23:42.504708333
        NUMBER_OF_FRAMES: 34106
        NUMBER_OF_BYTES : 146109700
        _STATISTICS_WRITING_APP: mkvpropedit v66.0.0 ('Josie') 64-bit
        _STATISTICS_WRITING_DATE_UTC: 2025-06-09 13:52:21
        _STATISTICS_TAGS: BPS DURATION NUMBER_OF_FRAMES NUMBER_OF_BYTES
  Stream #0:1(rus): Audio: aac (LC), 48000 Hz, stereo, fltp (default) (forced)
      Metadata:
        title           : AniLibria.TV
        ENCODER         : Lavc61.19.100 aac
        BPS             : 193168
        DURATION        : 00:23:42.400000000
        NUMBER_OF_FRAMES: 66676
        NUMBER_OF_BYTES : 34345330
        _STATISTICS_WRITING_APP: mkvpropedit v66.0.0 ('Josie') 64-bit
        _STATISTICS_WRITING_DATE_UTC: 2025-06-09 13:52:21
        _STATISTICS_TAGS: BPS DURATION NUMBER_OF_FRAMES NUMBER_OF_BYTES
  Stream #0:2(rus): Subtitle: ass (ssa) (default) (forced)
      Metadata:
        title           : Надписи
        BPS             : 0
        DURATION        : 00:00:00.000000000
        NUMBER_OF_FRAMES: 0
        NUMBER_OF_BYTES : 0
        _STATISTICS_WRITING_APP: mkvpropedit v66.0.0 ('Josie') 64-bit
        _STATISTICS_WRITING_DATE_UTC: 2025-06-09 13:52:21
        _STATISTICS_TAGS: BPS DURATION NUMBER_OF_FRAMES NUMBER_OF_BYTES
  Stream #0:3(rus): Subtitle: ass (ssa)
      Metadata:
        title           : Субтитры
        BPS             : 176
        DURATION        : 00:23:38.960000000
        NUMBER_OF_FRAMES: 327
        NUMBER_OF_BYTES : 31327
        _STATISTICS_WRITING_APP: mkvpropedit v66.0.0 ('Josie') 64-bit
        _STATISTICS_WRITING_DATE_UTC: 2025-06-09 13:52:21
        _STATISTICS_TAGS: BPS DURATION NUMBER_OF_FRAMES NUMBER_OF_BYTES
Input #1, matroska,webm, from 'G:\Аниме\Онгоинги\!_30_Весна_2023\Слишком милый кризис\Kawaisugi_Crisis_[08]_[AniLibria_TV]_[WEBRip_1080p].mkv':
  Metadata:
    encoder         : libebml v1.4.2 + libmatroska v1.6.4
    creation_time   : 2025-01-14T16:54:21.000000Z
  Duration: 00:23:42.51, start: 0.000000, bitrate: 1898 kb/s
  Stream #1:0(jpn): Video: h264 (High), yuvj420p(pc, bt709, progressive), 1920x1080 [SAR 1:1 DAR 16:9], 23.98 fps, 23.98 tbr, 1k tbn (default) (forced)
      Metadata:
        title           : Original
        BPS             : 1697271
        DURATION        : 00:23:42.505000000
        NUMBER_OF_FRAMES: 34106
        NUMBER_OF_BYTES : 301797214
        _STATISTICS_WRITING_APP: mkvmerge v66.0.0 ('Josie') 64-bit
        _STATISTICS_WRITING_DATE_UTC: 2025-01-14 16:54:21
        _STATISTICS_TAGS: BPS DURATION NUMBER_OF_FRAMES NUMBER_OF_BYTES
  Stream #1:1(rus): Audio: aac (LC), 48000 Hz, stereo, fltp (default) (forced)
      Metadata:
        title           : AniLibria.TV
        BPS             : 192088
        DURATION        : 00:23:42.400000000
        NUMBER_OF_FRAMES: 66675
        NUMBER_OF_BYTES : 34153247
        _STATISTICS_WRITING_APP: mkvmerge v66.0.0 ('Josie') 64-bit
        _STATISTICS_WRITING_DATE_UTC: 2025-01-14 16:54:21
        _STATISTICS_TAGS: BPS DURATION NUMBER_OF_FRAMES NUMBER_OF_BYTES
  Stream #1:2(rus): Subtitle: ass (ssa) (default) (forced)
      Metadata:
        title           : Надписи
        BPS             : 0
        DURATION        : 00:00:00.000000000
        NUMBER_OF_FRAMES: 0
        NUMBER_OF_BYTES : 0
        _STATISTICS_WRITING_APP: mkvmerge v66.0.0 ('Josie') 64-bit
        _STATISTICS_WRITING_DATE_UTC: 2025-01-14 16:54:21
        _STATISTICS_TAGS: BPS DURATION NUMBER_OF_FRAMES NUMBER_OF_BYTES
  Stream #1:3(rus): Subtitle: ass (ssa)
      Metadata:
        title           : Субтитры
        BPS             : 176
        DURATION        : 00:23:38.960000000
        NUMBER_OF_FRAMES: 327
        NUMBER_OF_BYTES : 31327
        _STATISTICS_WRITING_APP: mkvmerge v66.0.0 ('Josie') 64-bit
        _STATISTICS_WRITING_DATE_UTC: 2025-01-14 16:54:21
        _STATISTICS_TAGS: BPS DURATION NUMBER_OF_FRAMES NUMBER_OF_BYTES
  Stream #1:4: Attachment: ttf
      Metadata:
        filename        : tt0142m.ttf
        mimetype        : application/x-truetype-font
  Stream #1:5: Attachment: ttf
      Metadata:
        filename        : ARIAL.TTF
        mimetype        : application/x-truetype-font
Stream mapping:
  Stream #0:0 (hevc) -> settb:default
  Stream #1:0 (h264) -> settb:default
  ssim:default -> Stream #0:0 (wrapped_avframe)
  Stream #0:1 -> #0:1 (aac (native) -> pcm_s16le (native))
[swscaler @ 0000027770e135c0] deprecated pixel format used, make sure you did set range correctly
Output #0, null, to 'pipe:':
  Metadata:
    encoder         : Lavf61.7.100
  Stream #0:0: Video: wrapped_avframe, yuv420p10le(pc, bt709, progressive), 1920x1080 [SAR 1:1 DAR 16:9], q=2-31, 200 kb/s, 23.98 fps, 23.98 tbn
      Metadata:
        encoder         : Lavc61.19.100 wrapped_avframe
  Stream #0:1(rus): Audio: pcm_s16le, 48000 Hz, stereo, s16, 1536 kb/s (default) (forced)
      Metadata:
        title           : AniLibria.TV
        _STATISTICS_TAGS: BPS DURATION NUMBER_OF_FRAMES NUMBER_OF_BYTES
        BPS             : 193168
        DURATION        : 00:23:42.400000000
        NUMBER_OF_FRAMES: 66676
        NUMBER_OF_BYTES : 34345330
        _STATISTICS_WRITING_APP: mkvpropedit v66.0.0 ('Josie') 64-bit
        _STATISTICS_WRITING_DATE_UTC: 2025-06-09 13:52:21
        encoder         : Lavc61.19.100 pcm_s16le
frame=  169 fps=0.0 q=-0.0 size=N/A time=00:00:07.04 bitrate=N/A speed=13.4x    frame=  392 fps=373 q=-0.0 size=N/A time=00:00:16.34 bitrate=N/A speed=15.6x    frame=  637 fps=409 q=-0.0 size=N/A time=00:00:26.56 bitrate=N/A speed=  17x    frame=  866 fps=416 q=-0.0 size=N/A time=00:00:36.11 bitrate=N/A speed=17.3x    frame= 1092 fps=419 q=-0.0 size=N/A time=00:00:45.54 bitrate=N/A speed=17.5x    frame= 1327 fps=424 q=-0.0 size=N/A time=00:00:55.34 bitrate=N/A speed=17.7x    frame= 1562 fps=429 q=-0.0 size=N/A time=00:01:05.14 bitrate=N/A speed=17.9x    frame= 1783 fps=428 q=-0.0 size=N/A time=00:01:14.36 bitrate=N/A speed=17.9x    frame= 1996 fps=427 q=-0.0 size=N/A time=00:01:23.24 bitrate=N/A speed=17.8x    frame= 2243 fps=432 q=-0.0 size=N/A time=00:01:33.55 bitrate=N/A speed=  18x    frame= 2482 fps=435 q=-0.0 size=N/A time=00:01:43.52 bitrate=N/A speed=18.2x    frame= 2732 fps=439 q=-0.0 size=N/A time=00:01:53.94 bitrate=N/A speed=18.3x    frame= 2882 fps=428 q=-0.0 size=N/A time=00:02:00.20 bitrate=N/A speed=17.8x    frame= 3055 fps=421 q=-0.0 size=N/A time=00:02:07.41 bitrate=N/A speed=17.6x    frame= 3240 fps=417 q=-0.0 size=N/A time=00:02:15.13 bitrate=N/A speed=17.4x    frame= 3487 fps=421 q=-0.0 size=N/A time=00:02:25.43 bitrate=N/A speed=17.5x    frame= 3749 fps=426 q=-0.0 size=N/A time=00:02:36.36 bitrate=N/A speed=17.8x    frame= 3977 fps=427 q=-0.0 size=N/A time=00:02:45.87 bitrate=N/A speed=17.8x    frame= 4210 fps=428 q=-0.0 size=N/A time=00:02:55.59 bitrate=N/A speed=17.9x    frame= 4437 fps=429 q=-0.0 size=N/A time=00:03:05.05 bitrate=N/A speed=17.9x    frame= 4671 fps=430 q=-0.0 size=N/A time=00:03:14.81 bitrate=N/A speed=17.9x    frame= 4863 fps=428 q=-0.0 size=N/A time=00:03:22.82 bitrate=N/A speed=17.8x    frame= 5113 fps=430 q=-0.0 size=N/A time=00:03:33.25 bitrate=N/A speed=17.9x    frame= 5365 fps=432 q=-0.0 size=N/A time=00:03:43.76 bitrate=N/A speed=  18x    frame= 5610 fps=434 q=-0.0 size=N/A time=00:03:53.98 bitrate=N/A speed=18.1x    frame= 5864 fps=436 q=-0.0 size=N/A time=00:04:04.57 bitrate=N/A speed=18.2x    frame= 6101 fps=437 q=-0.0 size=N/A time=00:04:14.46 bitrate=N/A speed=18.2x    frame= 6355 fps=438 q=-0.0 size=N/A time=00:04:25.05 bitrate=N/A speed=18.3x    frame= 6589 fps=439 q=-0.0 size=N/A time=00:04:34.81 bitrate=N/A speed=18.3x    frame= 6798 fps=438 q=-0.0 size=N/A time=00:04:43.53 bitrate=N/A speed=18.3x    frame= 7034 fps=439 q=-0.0 size=N/A time=00:04:53.37 bitrate=N/A speed=18.3x    frame= 7286 fps=440 q=-0.0 size=N/A time=00:05:03.88 bitrate=N/A speed=18.4x    frame= 7532 fps=441 q=-0.0 size=N/A time=00:05:14.14 bitrate=N/A speed=18.4x    frame= 7764 fps=442 q=-0.0 size=N/A time=00:05:23.82 bitrate=N/A speed=18.4x    frame= 7986 fps=441 q=-0.0 size=N/A time=00:05:33.08 bitrate=N/A speed=18.4x    frame= 8218 fps=441 q=-0.0 size=N/A time=00:05:42.75 bitrate=N/A speed=18.4x    frame= 8463 fps=442 q=-0.0 size=N/A time=00:05:52.97 bitrate=N/A speed=18.5x    frame= 8716 fps=444 q=-0.0 size=N/A time=00:06:03.52 bitrate=N/A speed=18.5x    frame= 8955 fps=444 q=-0.0 size=N/A time=00:06:13.49 bitrate=N/A speed=18.5x    frame= 9195 fps=445 q=-0.0 size=N/A time=00:06:23.50 bitrate=N/A speed=18.6x    frame= 9364 fps=442 q=-0.0 size=N/A time=00:06:30.55 bitrate=N/A speed=18.4x    frame= 9515 fps=438 q=-0.0 size=N/A time=00:06:36.85 bitrate=N/A speed=18.3x    frame= 9769 fps=440 q=-0.0 size=N/A time=00:06:47.44 bitrate=N/A speed=18.3x    frame= 9992 fps=440 q=-0.0 size=N/A time=00:06:56.74 bitrate=N/A speed=18.3x    frame=10131 fps=436 q=-0.0 size=N/A time=00:07:02.54 bitrate=N/A speed=18.2x    frame=10323 fps=434 q=-0.0 size=N/A time=00:07:10.55 bitrate=N/A speed=18.1x    frame=10548 fps=434 q=-0.0 size=N/A time=00:07:19.93 bitrate=N/A speed=18.1x    frame=10805 fps=436 q=-0.0 size=N/A time=00:07:30.65 bitrate=N/A speed=18.2x    frame=11067 fps=437 q=-0.0 size=N/A time=00:07:41.58 bitrate=N/A speed=18.2x    frame=11289 fps=437 q=-0.0 size=N/A time=00:07:50.84 bitrate=N/A speed=18.2x    frame=11507 fps=437 q=-0.0 size=N/A time=00:07:59.93 bitrate=N/A speed=18.2x    frame=11752 fps=438 q=-0.0 size=N/A time=00:08:10.15 bitrate=N/A speed=18.2x    frame=11964 fps=437 q=-0.0 size=N/A time=00:08:18.99 bitrate=N/A speed=18.2x    frame=12191 fps=437 q=-0.0 size=N/A time=00:08:28.46 bitrate=N/A speed=18.2x    frame=12435 fps=438 q=-0.0 size=N/A time=00:08:38.64 bitrate=N/A speed=18.3x    frame=12661 fps=438 q=-0.0 size=N/A time=00:08:48.06 bitrate=N/A speed=18.3x    frame=12920 fps=439 q=-0.0 size=N/A time=00:08:58.87 bitrate=N/A speed=18.3x    frame=13173 fps=440 q=-0.0 size=N/A time=00:09:09.42 bitrate=N/A speed=18.3x    frame=13444 fps=441 q=-0.0 size=N/A time=00:09:20.72 bitrate=N/A speed=18.4x    frame=13704 fps=442 q=-0.0 size=N/A time=00:09:31.57 bitrate=N/A speed=18.4x    frame=13953 fps=443 q=-0.0 size=N/A time=00:09:41.95 bitrate=N/A speed=18.5x    frame=14201 fps=443 q=-0.0 size=N/A time=00:09:52.30 bitrate=N/A speed=18.5x    frame=14435 fps=444 q=-0.0 size=N/A time=00:10:02.05 bitrate=N/A speed=18.5x    frame=14690 fps=444 q=-0.0 size=N/A time=00:10:12.69 bitrate=N/A speed=18.5x    frame=14930 fps=445 q=-0.0 size=N/A time=00:10:22.70 bitrate=N/A speed=18.5x    frame=15174 fps=445 q=-0.0 size=N/A time=00:10:32.88 bitrate=N/A speed=18.6x    frame=15391 fps=445 q=-0.0 size=N/A time=00:10:41.93 bitrate=N/A speed=18.5x    frame=15654 fps=446 q=-0.0 size=N/A time=00:10:52.90 bitrate=N/A speed=18.6x    frame=15890 fps=446 q=-0.0 size=N/A time=00:11:02.74 bitrate=N/A speed=18.6x    frame=16164 fps=447 q=-0.0 size=N/A time=00:11:14.17 bitrate=N/A speed=18.6x    frame=16422 fps=448 q=-0.0 size=N/A time=00:11:24.93 bitrate=N/A speed=18.7x    frame=16681 fps=449 q=-0.0 size=N/A time=00:11:35.73 bitrate=N/A speed=18.7x    frame=16956 fps=450 q=-0.0 size=N/A time=00:11:47.20 bitrate=N/A speed=18.8x    frame=17184 fps=450 q=-0.0 size=N/A time=00:11:56.71 bitrate=N/A speed=18.8x    frame=17433 fps=450 q=-0.0 size=N/A time=00:12:07.10 bitrate=N/A speed=18.8x    frame=17682 fps=450 q=-0.0 size=N/A time=00:12:17.48 bitrate=N/A speed=18.8x    frame=17914 fps=451 q=-0.0 size=N/A time=00:12:27.16 bitrate=N/A speed=18.8x    frame=18110 fps=450 q=-0.0 size=N/A time=00:12:35.33 bitrate=N/A speed=18.7x    frame=18314 fps=449 q=-0.0 size=N/A time=00:12:43.84 bitrate=N/A speed=18.7x    frame=18500 fps=448 q=-0.0 size=N/A time=00:12:51.60 bitrate=N/A speed=18.7x    frame=18701 fps=447 q=-0.0 size=N/A time=00:12:59.98 bitrate=N/A speed=18.6x    frame=18894 fps=446 q=-0.0 size=N/A time=00:13:08.03 bitrate=N/A speed=18.6x    frame=19097 fps=446 q=-0.0 size=N/A time=00:13:16.50 bitrate=N/A speed=18.6x    frame=19352 fps=446 q=-0.0 size=N/A time=00:13:27.13 bitrate=N/A speed=18.6x    frame=19569 fps=446 q=-0.0 size=N/A time=00:13:36.19 bitrate=N/A speed=18.6x    frame=19826 fps=446 q=-0.0 size=N/A time=00:13:46.90 bitrate=N/A speed=18.6x    frame=20079 fps=447 q=-0.0 size=N/A time=00:13:57.46 bitrate=N/A speed=18.6x    frame=20323 fps=447 q=-0.0 size=N/A time=00:14:07.63 bitrate=N/A speed=18.7x    frame=20574 fps=448 q=-0.0 size=N/A time=00:14:18.10 bitrate=N/A speed=18.7x    frame=20818 fps=448 q=-0.0 size=N/A time=00:14:28.28 bitrate=N/A speed=18.7x    frame=21046 fps=448 q=-0.0 size=N/A time=00:14:37.79 bitrate=N/A speed=18.7x    frame=21280 fps=448 q=-0.0 size=N/A time=00:14:47.55 bitrate=N/A speed=18.7x    frame=21498 fps=448 q=-0.0 size=N/A time=00:14:56.64 bitrate=N/A speed=18.7x    frame=21728 fps=448 q=-0.0 size=N/A time=00:15:06.23 bitrate=N/A speed=18.7x    frame=21974 fps=448 q=-0.0 size=N/A time=00:15:16.49 bitrate=N/A speed=18.7x    frame=22217 fps=448 q=-0.0 size=N/A time=00:15:26.63 bitrate=N/A speed=18.7x    frame=22478 fps=449 q=-0.0 size=N/A time=00:15:37.51 bitrate=N/A speed=18.7x    frame=22750 fps=450 q=-0.0 size=N/A time=00:15:48.86 bitrate=N/A speed=18.8x    frame=23002 fps=450 q=-0.0 size=N/A time=00:15:59.37 bitrate=N/A speed=18.8x    frame=23237 fps=450 q=-0.0 size=N/A time=00:16:09.17 bitrate=N/A speed=18.8x    frame=23493 fps=451 q=-0.0 size=N/A time=00:16:19.85 bitrate=N/A speed=18.8x    frame=23762 fps=451 q=-0.0 size=N/A time=00:16:31.07 bitrate=N/A speed=18.8x    frame=24024 fps=452 q=-0.0 size=N/A time=00:16:42.00 bitrate=N/A speed=18.8x    frame=24279 fps=452 q=-0.0 size=N/A time=00:16:52.63 bitrate=N/A speed=18.9x    frame=24539 fps=453 q=-0.0 size=N/A time=00:17:03.48 bitrate=N/A speed=18.9x    frame=24797 fps=453 q=-0.0 size=N/A time=00:17:14.24 bitrate=N/A speed=18.9x    frame=25054 fps=454 q=-0.0 size=N/A time=00:17:24.96 bitrate=N/A speed=18.9x    frame=25275 fps=453 q=-0.0 size=N/A time=00:17:34.17 bitrate=N/A speed=18.9x    frame=25523 fps=454 q=-0.0 size=N/A time=00:17:44.52 bitrate=N/A speed=18.9x    frame=25772 fps=454 q=-0.0 size=N/A time=00:17:54.90 bitrate=N/A speed=18.9x    frame=25999 fps=454 q=-0.0 size=N/A time=00:18:04.37 bitrate=N/A speed=18.9x    frame=26183 fps=453 q=-0.0 size=N/A time=00:18:12.04 bitrate=N/A speed=18.9x    frame=26377 fps=452 q=-0.0 size=N/A time=00:18:20.14 bitrate=N/A speed=18.9x    frame=26591 fps=452 q=-0.0 size=N/A time=00:18:29.06 bitrate=N/A speed=18.8x    frame=26805 fps=452 q=-0.0 size=N/A time=00:18:37.99 bitrate=N/A speed=18.8x    frame=27049 fps=452 q=-0.0 size=N/A time=00:18:48.16 bitrate=N/A speed=18.8x    frame=27293 fps=452 q=-0.0 size=N/A time=00:18:58.34 bitrate=N/A speed=18.8x    frame=27505 fps=452 q=-0.0 size=N/A time=00:19:07.18 bitrate=N/A speed=18.8x    frame=27706 fps=451 q=-0.0 size=N/A time=00:19:15.57 bitrate=N/A speed=18.8x    frame=27963 fps=451 q=-0.0 size=N/A time=00:19:26.29 bitrate=N/A speed=18.8x    frame=28216 fps=452 q=-0.0 size=N/A time=00:19:36.84 bitrate=N/A speed=18.8x    frame=28473 fps=452 q=-0.0 size=N/A time=00:19:47.56 bitrate=N/A speed=18.9x    frame=28716 fps=452 q=-0.0 size=N/A time=00:19:57.69 bitrate=N/A speed=18.9x    frame=28962 fps=452 q=-0.0 size=N/A time=00:20:07.95 bitrate=N/A speed=18.9x    frame=29184 fps=452 q=-0.0 size=N/A time=00:20:17.21 bitrate=N/A speed=18.9x    frame=29436 fps=453 q=-0.0 size=N/A time=00:20:27.72 bitrate=N/A speed=18.9x    frame=29699 fps=453 q=-0.0 size=N/A time=00:20:38.69 bitrate=N/A speed=18.9x    frame=29969 fps=454 q=-0.0 size=N/A time=00:20:49.95 bitrate=N/A speed=18.9x    frame=30229 fps=454 q=-0.0 size=N/A time=00:21:00.80 bitrate=N/A speed=18.9x    frame=30471 fps=454 q=-0.0 size=N/A time=00:21:10.89 bitrate=N/A speed=18.9x    frame=30738 fps=454 q=-0.0 size=N/A time=00:21:22.03 bitrate=N/A speed=  19x    frame=30997 fps=455 q=-0.0 size=N/A time=00:21:32.83 bitrate=N/A speed=  19x    frame=31231 fps=455 q=-0.0 size=N/A time=00:21:42.59 bitrate=N/A speed=  19x    frame=31477 fps=455 q=-0.0 size=N/A time=00:21:52.85 bitrate=N/A speed=  19x    frame=31677 fps=455 q=-0.0 size=N/A time=00:22:01.19 bitrate=N/A speed=  19x    frame=31890 fps=454 q=-0.0 size=N/A time=00:22:10.07 bitrate=N/A speed=18.9x    frame=32063 fps=453 q=-0.0 size=N/A time=00:22:17.29 bitrate=N/A speed=18.9x    frame=32224 fps=452 q=-0.0 size=N/A time=00:22:24.00 bitrate=N/A speed=18.9x    frame=32387 fps=451 q=-0.0 size=N/A time=00:22:30.80 bitrate=N/A speed=18.8x    frame=32548 fps=450 q=-0.0 size=N/A time=00:22:37.52 bitrate=N/A speed=18.8x    frame=32692 fps=449 q=-0.0 size=N/A time=00:22:43.52 bitrate=N/A speed=18.7x    frame=32857 fps=448 q=-0.0 size=N/A time=00:22:50.41 bitrate=N/A speed=18.7x    frame=33026 fps=447 q=-0.0 size=N/A time=00:22:57.45 bitrate=N/A speed=18.7x    frame=33197 fps=447 q=-0.0 size=N/A time=00:23:04.59 bitrate=N/A speed=18.6x    frame=33395 fps=446 q=-0.0 size=N/A time=00:23:12.84 bitrate=N/A speed=18.6x    frame=33626 fps=446 q=-0.0 size=N/A time=00:23:22.48 bitrate=N/A speed=18.6x    frame=33843 fps=446 q=-0.0 size=N/A time=00:23:31.53 bitrate=N/A speed=18.6x    frame=34054 fps=446 q=-0.0 size=N/A time=00:23:40.33 bitrate=N/A speed=18.6x    [Parsed_ssim_10 @ 000002775c853540] SSIM Y:0.995010 (23.018652) U:0.995481 (23.449667) V:0.995405 (23.377228) All:0.995154 (23.146257)
[out#0/null @ 000002775a2beec0] video:14654KiB audio:266704KiB subtitle:0KiB other streams:0KiB global headers:0KiB muxing overhead: unknown
frame=34105 fps=446 q=-0.0 Lsize=N/A time=00:23:42.42 bitrate=N/A speed=18.6x    
